<?xml version="1.0" encoding="UTF-8" standalone="no"?>
<!-- Created with Inkscape (http://www.inkscape.org/) -->

<svg
   xmlns:dc="http://purl.org/dc/elements/1.1/"
   xmlns:cc="http://creativecommons.org/ns#"
   xmlns:rdf="http://www.w3.org/1999/02/22-rdf-syntax-ns#"
   xmlns:svg="http://www.w3.org/2000/svg"
   xmlns="http://www.w3.org/2000/svg"
   xmlns:sodipodi="http://sodipodi.sourceforge.net/DTD/sodipodi-0.dtd"
   xmlns:inkscape="http://www.inkscape.org/namespaces/inkscape"
   version="1.0"
   width="600"
   height="500"
   id="svg2"
   sodipodi:docname="ATSP.svg"
   inkscape:version="0.92.2 2405546, 2018-03-11">
  <metadata
     id="metadata32">
    <rdf:RDF>
      <cc:Work
         rdf:about="">
        <dc:format>image/svg+xml</dc:format>
        <dc:type
           rdf:resource="http://purl.org/dc/dcmitype/StillImage" />
      </cc:Work>
    </rdf:RDF>
  </metadata>
  <sodipodi:namedview
     pagecolor="#ffffff"
     bordercolor="#666666"
     borderopacity="1"
     objecttolerance="10"
     gridtolerance="10"
     guidetolerance="10"
     inkscape:pageopacity="0"
     inkscape:pageshadow="2"
     inkscape:window-width="1366"
     inkscape:window-height="744"
     id="namedview30"
     showgrid="false"
     inkscape:zoom="1.3350176"
     inkscape:cx="334.03039"
     inkscape:cy="107.16046"
     inkscape:window-x="1920"
     inkscape:window-y="0"
     inkscape:window-maximized="1"
     inkscape:current-layer="layer1" />
  <defs
     id="defs4">
    <marker
       inkscape:stockid="Arrow1Lstart"
       orient="auto"
       refY="0.0"
       refX="0.0"
       id="marker6293"
       style="overflow:visible"
       inkscape:isstock="true">
      <path
         id="path6291"
         d="M 0.0,0.0 L 5.0,-5.0 L -12.5,0.0 L 5.0,5.0 L 0.0,0.0 z "
         style="fill-rule:evenodd;stroke:#000000;stroke-width:1pt;stroke-opacity:1;fill:#000000;fill-opacity:1"
         transform="scale(0.8) translate(12.5,0)" />
    </marker>
    <marker
       inkscape:isstock="true"
       style="overflow:visible"
       id="marker5843"
       refX="0.0"
       refY="0.0"
       orient="auto"
       inkscape:stockid="Arrow1Lstart"
       inkscape:collect="always">
      <path
         transform="scale(0.8) translate(12.5,0)"
         style="fill-rule:evenodd;stroke:#000000;stroke-width:1pt;stroke-opacity:1;fill:#000000;fill-opacity:1"
         d="M 0.0,0.0 L 5.0,-5.0 L -12.5,0.0 L 5.0,5.0 L 0.0,0.0 z "
         id="path5841" />
    </marker>
    <marker
       inkscape:stockid="Arrow1Lend"
       orient="auto"
       refY="0.0"
       refX="0.0"
       id="Arrow1Lend"
       style="overflow:visible;"
       inkscape:isstock="true">
      <path
         id="path4580"
         d="M 0.0,0.0 L 5.0,-5.0 L -12.5,0.0 L 5.0,5.0 L 0.0,0.0 z "
         style="fill-rule:evenodd;stroke:#000000;stroke-width:1pt;stroke-opacity:1;fill:#000000;fill-opacity:1"
         transform="scale(0.8) rotate(180) translate(12.5,0)" />
    </marker>
    <marker
       inkscape:stockid="Arrow1Lstart"
       orient="auto"
       refY="0.0"
       refX="0.0"
       id="marker4861"
       style="overflow:visible"
       inkscape:isstock="true"
       inkscape:collect="always">
      <path
         id="path4859"
         d="M 0.0,0.0 L 5.0,-5.0 L -12.5,0.0 L 5.0,5.0 L 0.0,0.0 z "
         style="fill-rule:evenodd;stroke:#000000;stroke-width:1pt;stroke-opacity:1;fill:#000000;fill-opacity:1"
         transform="scale(0.8) translate(12.5,0)" />
    </marker>
    <marker
       inkscape:stockid="Arrow1Lstart"
       orient="auto"
       refY="0.0"
       refX="0.0"
       id="Arrow1Lstart"
       style="overflow:visible"
       inkscape:isstock="true">
      <path
         id="path4577"
         d="M 0.0,0.0 L 5.0,-5.0 L -12.5,0.0 L 5.0,5.0 L 0.0,0.0 z "
         style="fill-rule:evenodd;stroke:#000000;stroke-width:1pt;stroke-opacity:1;fill:#000000;fill-opacity:1"
         transform="scale(0.8) translate(12.5,0)" />
    </marker>
  </defs>
  <g
     id="layer1">
    <path
       d="M -14.285713 41.42857 A 45.714287 41.42857 0 1 1  -105.71429,41.42857 A 45.714287 41.42857 0 1 1  -14.285713 41.42857 z"
       transform="matrix(0.875,0,0,0.9655173,152.5,60)"
       style="opacity:1;fill:none;stroke:#000000;stroke-width:1.74074805;"
       id="path21060" />
    <path
       d="M -14.285713 41.42857 A 45.714287 41.42857 0 1 1  -105.71429,41.42857 A 45.714287 41.42857 0 1 1  -14.285713 41.42857 z"
       transform="matrix(0.875,0,0,0.9655173,552.5,360)"
       style="opacity:1;fill:none;stroke:#000000;stroke-width:1.74074805;"
       id="path22048" />
    <path
       d="M -14.285713 41.42857 A 45.714287 41.42857 0 1 1  -105.71429,41.42857 A 45.714287 41.42857 0 1 1  -14.285713 41.42857 z"
       transform="matrix(0.875,0,0,0.9655173,552.5,60)"
       style="opacity:1;fill:none;stroke:#000000;stroke-width:1.74074805;"
       id="path22045" />
    <path
       d="M -14.285713 41.42857 A 45.714287 41.42857 0 1 1  -105.71429,41.42857 A 45.714287 41.42857 0 1 1  -14.285713 41.42857 z"
       transform="matrix(0.875,0,0,0.9655173,152.5,360)"
       style="opacity:1;fill:none;stroke:#000000;stroke-width:1.74074805;"
       id="path22032" />
    <text
       x="85.625"
       y="113.54492"
       style="font-size:40px;fill:#000000;fill-opacity:1;font-family:Times New Roman"
       id="text15969"
       xml:space="preserve"><tspan
         x="85.625"
         y="113.54492"
         id="tspan15971">A</tspan></text>
    <text
       x="487.42188"
       y="113.24219"
       style="font-size:40px;fill:#000000;fill-opacity:1;font-family:Times New Roman"
       id="text15985"
       xml:space="preserve"><tspan
         x="487.42188"
         y="113.24219"
         id="tspan15987">B</tspan></text>
    <text
       x="86.630859"
       y="413.24219"
       style="font-size:40px;fill:#000000;fill-opacity:1;font-family:Times New Roman"
       id="text15989"
       xml:space="preserve"><tspan
         x="86.630859"
         y="413.24219"
         id="tspan15991">C</tspan></text>
    <text
       x="485.97656"
       y="413.24219"
       style="font-size:40px;fill:#000000;fill-opacity:1;font-family:Times New Roman"
       id="text15993"
       xml:space="preserve"><tspan
         x="485.97656"
         y="413.24219"
         id="tspan15995">D</tspan></text>
    <text
       x="267.57135"
       y="90.664726"
       style="font-size:40px;font-family:'Times New Roman';fill:#000000;fill-opacity:1"
       id="text15997"
       xml:space="preserve"><tspan
         x="267.57135"
         y="90.664726"
         id="tspan15999">20</tspan></text>
    <text
       x="267.99957"
       y="432.5473"
       style="font-size:40px;font-family:'Times New Roman';fill:#000000;fill-opacity:1"
       id="text16001"
       xml:space="preserve"><tspan
         x="267.99957"
         y="432.5473"
         id="tspan16003">12</tspan></text>
    <text
       x="56.340935"
       y="263.89014"
       style="font-size:40px;font-family:'Times New Roman';fill:#000000;fill-opacity:1"
       id="text16005"
       xml:space="preserve"><tspan
         x="56.340935"
         y="263.89014"
         id="tspan16007">42</tspan></text>
    <text
       x="504.79532"
       y="263.46851"
       style="font-size:40px;font-family:'Times New Roman';fill:#000000;fill-opacity:1"
       id="text16009"
       xml:space="preserve"><tspan
         x="504.79532"
         y="263.46851"
         id="tspan16011">17</tspan></text>
    <text
       x="132.29697"
       y="352.60184"
       style="font-size:40px;font-family:'Times New Roman';fill:#000000;fill-opacity:1"
       id="text16013"
       xml:space="preserve"><tspan
         x="132.29697"
         y="352.60184"
         id="tspan16015">30</tspan></text>
    <text
       x="391.52509"
       y="381.03549"
       style="font-size:40px;font-family:'Times New Roman';fill:#000000;fill-opacity:1"
       id="text16017"
       xml:space="preserve"><tspan
         x="391.52509"
         y="381.03549"
         id="tspan16019">35</tspan></text>
    <path
       d="M 139.9375,98.40625 C 139.95822,98.934528 140,99.466674 140,100 C 140,100.53333 139.95822,101.06547 139.9375,101.59375 L 460.0625,101.59375 C 460.04178,101.06547 460,100.53333 460,100 C 460,99.466674 460.04178,98.934528 460.0625,98.40625 L 139.9375,98.40625 z M 132.9375,122.6875 C 132.32297,123.57735 131.68276,124.44558 131,125.28125 L 297.3125,250 L 131,374.71875 C 131.68276,375.55442 132.32297,376.42265 132.9375,377.3125 L 300,252 L 467.0625,377.3125 C 467.67703,376.42265 468.31724,375.55442 469,374.71875 L 302.6875,250 L 469,125.28125 C 468.31292,124.44029 467.68048,123.58331 467.0625,122.6875 L 300,248 L 132.9375,122.6875 z M 98.40625,139.9375 L 98.40625,360.0625 C 98.934528,360.04178 99.466674,360 100,360 C 100.53333,360 101.06547,360.04178 101.59375,360.0625 L 101.59375,139.9375 C 101.06547,139.95822 100.53333,140 100,140 C 99.466674,140 98.934528,139.95822 98.40625,139.9375 z M 498.40625,139.9375 L 498.40625,360.0625 C 498.93453,360.04178 499.46667,360 500,360 C 500.53333,360 501.06547,360.04178 501.59375,360.0625 L 501.59375,139.9375 C 501.06547,139.95822 500.53333,140 500,140 C 499.46667,140 498.93453,139.95822 498.40625,139.9375 z M 139.9375,398.40625 C 139.95822,398.93453 140,399.46667 140,400 C 140,400.53333 139.95822,401.06547 139.9375,401.59375 L 460.0625,401.59375 C 460.04178,401.06547 460,400.53333 460,400 C 460,399.46667 460.04178,398.93453 460.0625,398.40625 L 139.9375,398.40625 z "
       style="fill:#000000"
       id="rect2360" />
    <text
       xml:space="preserve"
       id="text5743"
       style="font-size:40px;font-family:'Times New Roman';fill:#000000;fill-opacity:1"
       y="263.51562"
       x="107.65112"><tspan
         id="tspan5741"
         y="263.51562"
         x="107.65112">12</tspan></text>
    <text
       xml:space="preserve"
       id="text5831"
       style="font-size:40px;font-family:'Times New Roman';fill:#000000;fill-opacity:1"
       y="136.12527"
       x="387.7243"><tspan
         id="tspan5829"
         y="136.12527"
         x="387.7243">15</tspan></text>
    <text
       xml:space="preserve"
       id="text53"
       style="font-size:40px;font-family:'Times New Roman';fill:#000000;fill-opacity:1"
       y="395.20621"
       x="268.52924"><tspan
         id="tspan51"
         y="395.20621"
         x="268.52924">16</tspan></text>
    <text
       xml:space="preserve"
       id="text61"
       style="font-size:40px;font-family:'Times New Roman';fill:#000000;fill-opacity:1"
       y="134.09692"
       x="266.51202"><tspan
         id="tspan59"
         y="134.09692"
         x="266.51202">20</tspan></text>
    <text
       xml:space="preserve"
       id="text60"
       style="font-size:40px;font-family:'Times New Roman';fill:#000000;fill-opacity:1"
       y="178.90633"
       x="106.64699"><tspan
         id="tspan58"
         y="178.90633"
         x="106.64699">13</tspan></text>
    <text
       xml:space="preserve"
       id="text70"
       style="font-size:40px;font-family:'Times New Roman';fill:#000000;fill-opacity:1"
       y="263.09399"
       x="456.29407"><tspan
         id="tspan68"
         y="263.09399"
         x="456.29407">34</tspan></text>
    <text
       xml:space="preserve"
       id="text68"
       style="font-size:40px;font-family:'Times New Roman';fill:#000000;fill-opacity:1"
       y="490.10641"
       x="143.17242"><tspan
         id="tspan66"
         y="490.10641"
         x="143.17242">Asymetryczny TSP</tspan></text>
  </g>
  <path
     style="fill:none;stroke:#000000;stroke-width:2.33108783;stroke-linecap:butt;stroke-linejoin:miter;stroke-miterlimit:4;stroke-dasharray:none;stroke-opacity:1;marker-start:url(#marker4861)"
     d="m 44.218824,224.73002 -0.497846,56.18392 v 0"
     id="path64"
     inkscape:connector-curvature="0"
     inkscape:transform-center-x="-3.3167426"
     inkscape:transform-center-y="-6.0776488" />
  <path
     inkscape:transform-center-y="6.1350712"
     inkscape:transform-center-x="3.2092874"
     inkscape:connector-curvature="0"
     id="path5839"
     d="m 159.03602,278.52014 -0.49087,-56.18398 v 0"
     style="fill:none;stroke:#000000;stroke-width:2.33108783;stroke-linecap:butt;stroke-linejoin:miter;stroke-miterlimit:4;stroke-dasharray:none;stroke-opacity:1;marker-start:url(#marker5843)" />
  <path
     style="fill:none;stroke:#000000;stroke-width:2.33108783;stroke-linecap:butt;stroke-linejoin:miter;stroke-miterlimit:4;stroke-dasharray:none;stroke-opacity:1;marker-start:url(#marker6293)"
     d="m 174.79512,296.88126 -46.28622,31.85069 v 0"
     id="path6289"
     inkscape:connector-curvature="0"
     inkscape:transform-center-x="-6.8803776"
     inkscape:transform-center-y="-0.7739438" />
  <path
     inkscape:transform-center-y="0.9126412"
     inkscape:transform-center-x="6.8633574"
     inkscape:connector-curvature="0"
     id="path49"
     d="m 386.62326,166.09051 45.63403,-32.7783 v 0"
     style="fill:none;stroke:#000000;stroke-width:2.33108783;stroke-linecap:butt;stroke-linejoin:miter;stroke-miterlimit:4;stroke-dasharray:none;stroke-opacity:1;marker-start:url(#marker6293)" />
  <path
     style="fill:none;stroke:#000000;stroke-width:2.33108783;stroke-linecap:butt;stroke-linejoin:miter;stroke-miterlimit:4;stroke-dasharray:none;stroke-opacity:1;marker-start:url(#marker6293)"
     d="m 261.40571,445.92637 56.16461,1.55505 v 0"
     id="path55"
     inkscape:connector-curvature="0"
     inkscape:transform-center-x="6.0141574"
     inkscape:transform-center-y="-3.4305238" />
  <path
     inkscape:transform-center-y="3.2761012"
     inkscape:transform-center-x="-6.0996476"
     inkscape:connector-curvature="0"
     id="path57"
     d="m 320.95541,358.92746 -56.186,-0.12286 v 0"
     style="fill:none;stroke:#000000;stroke-width:2.33108783;stroke-linecap:butt;stroke-linejoin:miter;stroke-miterlimit:4;stroke-dasharray:none;stroke-opacity:1;marker-start:url(#marker6293)" />
  <path
     style="fill:none;stroke:#000000;stroke-width:2.33108783;stroke-linecap:butt;stroke-linejoin:miter;stroke-miterlimit:4;stroke-dasharray:none;stroke-opacity:1;marker-start:url(#marker6293)"
     d="m 315.39396,148.12238 -56.186,-0.12286 v 0"
     id="path63"
     inkscape:connector-curvature="0"
     inkscape:transform-center-x="-6.0996476"
     inkscape:transform-center-y="3.2761012" />
  <path
     inkscape:transform-center-y="-3.2106743"
     inkscape:transform-center-x="6.1343424"
     inkscape:connector-curvature="0"
     id="path65"
     d="m 254.12535,52.830169 56.1841,-0.478091 v 0"
     style="fill:none;stroke:#000000;stroke-width:2.33108783;stroke-linecap:butt;stroke-linejoin:miter;stroke-miterlimit:4;stroke-dasharray:none;stroke-opacity:1;marker-start:url(#marker6293)" />
  <path
     style="fill:none;stroke:#000000;stroke-width:2.33108783;stroke-linecap:butt;stroke-linejoin:miter;stroke-miterlimit:4;stroke-dasharray:none;stroke-opacity:1;marker-start:url(#marker6293)"
     d="m 178.08074,176.53829 -43.16201,-35.97115 v 0"
     id="path62"
     inkscape:connector-curvature="0"
     inkscape:transform-center-x="-2.6023626"
     inkscape:transform-center-y="6.4160962" />
  <path
     inkscape:transform-center-y="-6.2452188"
     inkscape:transform-center-x="2.9892824"
     inkscape:connector-curvature="0"
     id="path66"
     d="m 368.39087,324.23588 45.27792,33.2685 v 0"
     style="fill:none;stroke:#000000;stroke-width:2.33108783;stroke-linecap:butt;stroke-linejoin:miter;stroke-miterlimit:4;stroke-dasharray:none;stroke-opacity:1;marker-start:url(#marker6293)" />
  <path
     style="fill:none;stroke:#000000;stroke-width:2.33108783;stroke-linecap:butt;stroke-linejoin:miter;stroke-miterlimit:4;stroke-dasharray:none;stroke-opacity:1;marker-start:url(#marker5843)"
     d="m 559.40527,274.40034 -0.49087,-56.18398 v 0"
     id="path72"
     inkscape:connector-curvature="0"
     inkscape:transform-center-x="3.2092874"
     inkscape:transform-center-y="6.1350712" />
  <path
     inkscape:transform-center-y="-6.0531588"
     inkscape:transform-center-x="-3.3612276"
     inkscape:connector-curvature="0"
     id="path74"
     d="m 445.58762,221.76087 -0.90986,56.17876 v 0"
     style="fill:none;stroke:#000000;stroke-width:2.33108783;stroke-linecap:butt;stroke-linejoin:miter;stroke-miterlimit:4;stroke-dasharray:none;stroke-opacity:1;marker-start:url(#marker5843)" />
</svg>
